<?xml version="1.0" standalone="no"?>
<!DOCTYPE svg PUBLIC "-//W3C//DTD SVG 20010904//EN"
 "http://www.w3.org/TR/2001/REC-SVG-20010904/DTD/svg10.dtd">
<svg version="1.0" xmlns="http://www.w3.org/2000/svg"
 width="128.000000pt" height="128.000000pt" viewBox="0 0 128.000000 128.000000"
 preserveAspectRatio="xMidYMid meet">

<g transform="translate(0.000000,128.000000) scale(0.100000,-0.100000)"
fill="#a4ffa7cf" stroke="none">
<path d="M762 1149 c-80 -23 -142 -131 -128 -221 16 -98 92 -163 191 -163 106
0 186 64 201 161 22 151 -114 266 -264 223z m152 -108 c26 -27 31 -39 31 -81
0 -43 -5 -54 -33 -82 -28 -28 -39 -33 -82 -33 -43 0 -54 5 -82 33 -28 28 -33
39 -33 81 0 52 25 92 70 112 37 16 96 3 129 -30z"/>
<path d="M382 909 c-80 -23 -142 -131 -128 -221 16 -98 92 -163 191 -163 106
0 186 64 201 161 22 151 -114 266 -264 223z m152 -108 c26 -27 31 -39 31 -81
0 -43 -5 -54 -33 -82 -28 -28 -39 -33 -82 -33 -43 0 -54 5 -82 33 -28 28 -33
39 -33 81 0 52 25 92 70 112 37 16 96 3 129 -30z"/>
<path d="M980 739 c-10 -17 -7 -28 15 -61 32 -48 55 -110 55 -148 0 -44 -63
-75 -181 -88 -68 -8 -93 -28 -73 -59 35 -56 267 3 315 80 37 59 11 187 -55
265 -32 37 -60 41 -76 11z"/>
<path d="M224 488 c-66 -78 -92 -206 -55 -265 67 -106 335 -137 494 -56 67 33
90 73 84 144 -11 129 -111 257 -147 189 -9 -17 -5 -31 25 -78 23 -38 38 -76
41 -108 6 -46 4 -52 -20 -67 -67 -44 -207 -59 -309 -32 -78 20 -107 41 -107
75 0 38 24 102 54 147 30 44 31 47 10 67 -23 24 -39 20 -70 -16z"/>
</g>
</svg>
